# Blender v2.78 (sub 0) OBJ File: ''
# www.blender.org
mtllib hextile.mtl
o Cylinder
v 0.999991 0.452480 -0.574779
v 0.999991 0.702480 -0.574779
v 1.866016 0.452480 -0.074779
v 1.866016 0.702480 -0.074779
v 1.866016 0.452480 0.925221
v 1.866016 0.702480 0.925221
v 0.999991 0.452480 1.425221
v 0.999991 0.702480 1.425221
v 0.133965 0.452480 0.925221
v 0.133965 0.702480 0.925221
v 0.133965 0.452480 -0.074779
v 0.133965 0.702480 -0.074779
vt 0.1667 0.5000
vt 0.1667 1.0000
vt 0.0000 1.0000
vt 0.0000 0.5000
vt 0.3333 0.5000
vt 0.3333 1.0000
vt 0.1667 1.0000
vt 0.1667 0.5000
vt 0.5000 0.5000
vt 0.5000 1.0000
vt 0.3333 1.0000
vt 0.3333 0.5000
vt 0.6667 0.5000
vt 0.6667 1.0000
vt 0.5000 1.0000
vt 0.5000 0.5000
vt 0.4578 0.3700
vt 0.2500 0.4900
vt 0.0422 0.3700
vt 0.0422 0.1300
vt 0.2500 0.0100
vt 0.4578 0.1300
vt 0.8333 0.5000
vt 0.8333 1.0000
vt 0.6667 1.0000
vt 0.6667 0.5000
vt 1.0000 0.5000
vt 1.0000 1.0000
vt 0.8333 1.0000
vt 0.8333 0.5000
vt 0.7500 0.4900
vt 0.9578 0.3700
vt 0.9578 0.1300
vt 0.7500 0.0100
vt 0.5422 0.1300
vt 0.5422 0.3700
vn 0.5000 0.0000 -0.8660
vn 1.0000 0.0000 0.0000
vn 0.5000 0.0000 0.8660
vn -0.5000 0.0000 0.8660
vn 0.0000 1.0000 0.0000
vn -1.0000 0.0000 0.0000
vn -0.5000 0.0000 -0.8660
vn 0.0000 -1.0000 0.0000
usemtl None
s off
f 1/1/1 2/2/1 4/3/1 3/4/1
f 3/5/2 4/6/2 6/7/2 5/8/2
f 5/9/3 6/10/3 8/11/3 7/12/3
f 7/13/4 8/14/4 10/15/4 9/16/4
f 4/17/5 2/18/5 12/19/5 10/20/5 8/21/5 6/22/5
f 9/23/6 10/24/6 12/25/6 11/26/6
f 11/27/7 12/28/7 2/29/7 1/30/7
f 1/31/8 3/32/8 5/33/8 7/34/8 9/35/8 11/36/8
